<mxfile host="app.diagrams.net" modified="2024-01-17T07:04:10.248Z" agent="Mozilla/5.0 (Windows NT 10.0; Win64; x64) AppleWebKit/537.36 (KHTML, like Gecko) Chrome/120.0.0.0 Safari/537.36 Edg/120.0.0.0" etag="Z8oXQVRgLwPKuJYCe45e" version="22.1.20" type="device">
  <diagram name="Page-1" id="TFpm3ojlaHiEnOpunPYq">
    <mxGraphModel dx="761" dy="432" grid="1" gridSize="10" guides="1" tooltips="1" connect="1" arrows="1" fold="1" page="1" pageScale="1" pageWidth="827" pageHeight="1169" math="0" shadow="0">
      <root>
        <mxCell id="0" />
        <mxCell id="1" parent="0" />
        <mxCell id="uhXmVqMxQwo8p8NAcvKO-1" value="" style="swimlane;startSize=0;fillColor=#dae8fc;strokeColor=#6c8ebf;" vertex="1" parent="1">
          <mxGeometry x="170" y="50" width="430" height="880" as="geometry" />
        </mxCell>
        <mxCell id="uhXmVqMxQwo8p8NAcvKO-6" value="View Leave Application" style="ellipse;whiteSpace=wrap;html=1;fillColor=#dae8fc;strokeColor=#6c8ebf;" vertex="1" parent="uhXmVqMxQwo8p8NAcvKO-1">
          <mxGeometry x="140" y="80" width="120" height="80" as="geometry" />
        </mxCell>
        <mxCell id="uhXmVqMxQwo8p8NAcvKO-7" value="View Leave &lt;br&gt;Balance" style="ellipse;whiteSpace=wrap;html=1;fillColor=#dae8fc;strokeColor=#6c8ebf;" vertex="1" parent="uhXmVqMxQwo8p8NAcvKO-1">
          <mxGeometry x="140" y="200" width="120" height="80" as="geometry" />
        </mxCell>
        <mxCell id="uhXmVqMxQwo8p8NAcvKO-8" value="Approve/Decline Leave" style="ellipse;whiteSpace=wrap;html=1;fillColor=#dae8fc;strokeColor=#6c8ebf;" vertex="1" parent="uhXmVqMxQwo8p8NAcvKO-1">
          <mxGeometry x="140" y="330" width="120" height="80" as="geometry" />
        </mxCell>
        <mxCell id="uhXmVqMxQwo8p8NAcvKO-9" value="Send Leave&lt;br&gt;&amp;nbsp;Outcome" style="ellipse;whiteSpace=wrap;html=1;fillColor=#dae8fc;strokeColor=#6c8ebf;" vertex="1" parent="uhXmVqMxQwo8p8NAcvKO-1">
          <mxGeometry x="140" y="445" width="120" height="80" as="geometry" />
        </mxCell>
        <mxCell id="uhXmVqMxQwo8p8NAcvKO-10" value="View Leave&lt;br&gt;&amp;nbsp;History" style="ellipse;whiteSpace=wrap;html=1;fillColor=#dae8fc;strokeColor=#6c8ebf;" vertex="1" parent="uhXmVqMxQwo8p8NAcvKO-1">
          <mxGeometry x="140" y="580" width="120" height="80" as="geometry" />
        </mxCell>
        <mxCell id="uhXmVqMxQwo8p8NAcvKO-11" value="View Leave &lt;br&gt;Outcome" style="ellipse;whiteSpace=wrap;html=1;fillColor=#dae8fc;strokeColor=#6c8ebf;" vertex="1" parent="uhXmVqMxQwo8p8NAcvKO-1">
          <mxGeometry x="140" y="720" width="120" height="80" as="geometry" />
        </mxCell>
        <mxCell id="uhXmVqMxQwo8p8NAcvKO-24" value="&lt;h1&gt;&lt;b&gt;Leave Management&lt;/b&gt;&lt;/h1&gt;" style="text;html=1;align=center;verticalAlign=middle;resizable=0;points=[];autosize=1;" vertex="1" parent="uhXmVqMxQwo8p8NAcvKO-1">
          <mxGeometry x="90" width="240" height="70" as="geometry" />
        </mxCell>
        <mxCell id="uhXmVqMxQwo8p8NAcvKO-2" value="Geek" style="shape=umlActor;verticalLabelPosition=bottom;verticalAlign=top;html=1;outlineConnect=0;fillColor=#dae8fc;strokeColor=#6c8ebf;" vertex="1" parent="1">
          <mxGeometry x="60" y="120" width="30" height="60" as="geometry" />
        </mxCell>
        <mxCell id="uhXmVqMxQwo8p8NAcvKO-4" value="Admin" style="shape=umlActor;verticalLabelPosition=bottom;verticalAlign=top;html=1;outlineConnect=0;fillColor=#dae8fc;strokeColor=#6c8ebf;" vertex="1" parent="1">
          <mxGeometry x="720" y="120" width="30" height="60" as="geometry" />
        </mxCell>
        <mxCell id="uhXmVqMxQwo8p8NAcvKO-5" value="Trainer" style="shape=umlActor;verticalLabelPosition=bottom;verticalAlign=top;html=1;outlineConnect=0;fillColor=#dae8fc;strokeColor=#6c8ebf;" vertex="1" parent="1">
          <mxGeometry x="730" y="460" width="30" height="60" as="geometry" />
        </mxCell>
        <mxCell id="uhXmVqMxQwo8p8NAcvKO-26" value="" style="endArrow=classic;html=1;rounded=0;exitX=0.5;exitY=0.5;exitDx=0;exitDy=0;exitPerimeter=0;entryX=0.995;entryY=0.462;entryDx=0;entryDy=0;entryPerimeter=0;fillColor=#dae8fc;strokeColor=#6c8ebf;" edge="1" parent="1" source="uhXmVqMxQwo8p8NAcvKO-4" target="uhXmVqMxQwo8p8NAcvKO-6">
          <mxGeometry width="50" height="50" relative="1" as="geometry">
            <mxPoint x="745.48" y="150" as="sourcePoint" />
            <mxPoint x="440" y="159.84000000000003" as="targetPoint" />
          </mxGeometry>
        </mxCell>
        <mxCell id="uhXmVqMxQwo8p8NAcvKO-27" value="" style="endArrow=classic;html=1;rounded=0;exitX=0.5;exitY=0.5;exitDx=0;exitDy=0;exitPerimeter=0;entryX=1.008;entryY=0.462;entryDx=0;entryDy=0;entryPerimeter=0;fillColor=#dae8fc;strokeColor=#6c8ebf;" edge="1" parent="1" source="uhXmVqMxQwo8p8NAcvKO-4" target="uhXmVqMxQwo8p8NAcvKO-7">
          <mxGeometry width="50" height="50" relative="1" as="geometry">
            <mxPoint x="745" y="180" as="sourcePoint" />
            <mxPoint x="440" y="190" as="targetPoint" />
          </mxGeometry>
        </mxCell>
        <mxCell id="uhXmVqMxQwo8p8NAcvKO-28" value="" style="endArrow=classic;html=1;rounded=0;exitX=0.5;exitY=0.5;exitDx=0;exitDy=0;exitPerimeter=0;entryX=0.988;entryY=0.425;entryDx=0;entryDy=0;entryPerimeter=0;fillColor=#dae8fc;strokeColor=#6c8ebf;" edge="1" parent="1" source="uhXmVqMxQwo8p8NAcvKO-4" target="uhXmVqMxQwo8p8NAcvKO-8">
          <mxGeometry width="50" height="50" relative="1" as="geometry">
            <mxPoint x="765" y="360" as="sourcePoint" />
            <mxPoint x="460" y="370" as="targetPoint" />
          </mxGeometry>
        </mxCell>
      </root>
    </mxGraphModel>
  </diagram>
</mxfile>
